# xmcd CD database file
#
# Track frame offsets:
#	182
#	19385
#	39707
#	54160
#	73885
#	92605
#	109882
#	128717
#	149695
#	168780
#	187530
#	199287
#	221532
#	236647
#
# Disc length: 3443 seconds
#
# Revision: 3
# Processed by: cddbd v1.5.1PL0 Copyright (c) Steve Scherf et al.
# Submitted via: CDex 1.50
#
DISCID=c80d710e
DTITLE=Loredana Bertè - Le più belle canzoni di Loredana Bertè
DYEAR=1993
DGENRE=Pop
TTITLE0=Il mare d'inverno
TTITLE1=La curiosità
TTITLE2=Samurai
TTITLE3=Savoir faire
TTITLE4=La tigre e il cantautore
TTITLE5=Fotografando
TTITLE6=Un'automobile di trent'anni
TTITLE7=Così ti scrivo
TTITLE8=Acqua
TTITLE9=Ragazzo mio
TTITLE10=Seduzir (una favola trascina il mondo)
TTITLE11=Quanto costa dottore
TTITLE12=Una sera che piove
TTITLE13=Jazz
EXTD=YEAR: 1993
EXTT0=
EXTT1=
EXTT2=
EXTT3=
EXTT4=
EXTT5=
EXTT6=
EXTT7=
EXTT8=
EXTT9=
EXTT10=
EXTT11=
EXTT12=
EXTT13=
PLAYORDER=
